SplineFontDB: 3.0
FontName: Fanwood
FullName: Fanwood
FamilyName: Fanwood
Weight: Regular
Copyright: Created by trashman with FontForge 2.0 (http://fontforge.sf.net)
UComments: "10pt on 11pt body: Scan 6400, cut 1000, scale 105%; print at 11pt to match original size." 
Version: 001.000
ItalicAngle: 0
UnderlinePosition: -100
UnderlineWidth: 50
Ascent: 690
Descent: 310
LayerCount: 3
Layer: 0 0 "Back"  1
Layer: 1 0 "Fore"  0
Layer: 2 0 "backup"  0
NeedsXUIDChange: 1
XUID: [1021 658 797806517 11107023]
OS2Version: 0
OS2_WeightWidthSlopeOnly: 0
OS2_UseTypoMetrics: 1
CreationTime: 1287776574
ModificationTime: 1289548457
OS2TypoAscent: 0
OS2TypoAOffset: 1
OS2TypoDescent: 0
OS2TypoDOffset: 1
OS2TypoLinegap: 0
OS2WinAscent: 0
OS2WinAOffset: 1
OS2WinDescent: 0
OS2WinDOffset: 1
HheadAscent: 0
HheadAOffset: 1
HheadDescent: 0
HheadDOffset: 1
OS2Vendor: 'PfEd'
MarkAttachClasses: 1
DEI: 91125
Encoding: UnicodeBmp
UnicodeInterp: none
NameList: Adobe Glyph List
DisplaySize: -48
AntiAlias: 1
FitToEm: 1
WinInfo: 96 12 4
BeginPrivate: 9
BlueValues 7 [-13 0]
OtherBlues 2 []
BlueScale 8 0.039625
BlueShift 1 7
BlueFuzz 1 0
StdHW 4 [24]
StemSnapH 28 [20 24 30 34 45 50 76 88 94]
StdVW 4 [68]
StemSnapV 34 [23 42 53 57 61 64 68 73 82 95 99]
EndPrivate
BeginChars: 65536 63

StartChar: a
Encoding: 97 97 0
Width: 410
VWidth: 0
Flags: W
HStem: -18 56<297 343.12> -14 44<121.625 209.721> 374 25<140.02 226.679>
VStem: 33 70<48.0664 129.194> 47 68<281.193 331.887> 265 65.3643<47.627 202.997 219.069 346.736>
LayerCount: 3
Fore
SplineSet
341 38 m 0xac
 364 38 381 58 384 58 c 0
 388 58 397 49 397 43 c 0
 397 38 336 -2 322 -12 c 0
 315 -16 310 -18 304 -18 c 0xac
 290 -18 279 -6 270 16 c 0
 267 23 266 39 265 39 c 0
 263 39 254 31 246 27 c 0
 226 15 173 -14 131 -14 c 0
 69 -14 33 20 33 71 c 0x74
 33 160 158 202 257 219 c 0
 265.126953125 220.395507812 265 227 265 235 c 0
 265 305 264 374 178 374 c 0
 168 374 157 373 147 369 c 0
 119 357 116 342 115 302 c 0
 115 296 114 285 108 281 c 0
 92 269 59 253 55 253 c 0
 50 253 47 257 47 268 c 0
 47 350 134 399 199 399 c 0
 299.59375 399 330.364257812 346.852539062 330.364257812 268.317382812 c 0
 330.364257812 217.75390625 324 80.876953125 324 59 c 0
 324 45 331 38 341 38 c 0xac
259 203 m 0
 256 203 226 196 197 188 c 0
 149 175 103 146 103 99 c 0
 103 67 126 30 168 30 c 0x74
 206 30 265 54 265 59 c 2
 265 192 l 2
 265 199 264 203 259 203 c 0
EndSplineSet
EndChar

StartChar: b
Encoding: 98 98 1
Width: 457
VWidth: 0
Flags: W
HStem: -11 24<175.514 279.022> 359 31<174.184 275.041> 689 24<11.0593 82.0612>
VStem: 77 65<-5.5 327.755> 83 81<469.998 688.994> 84 68<104.753 352.593 366.822 610.245> 363 73<97.8601 276.451>
LayerCount: 3
Fore
SplineSet
152 377 m 24xe6
 152 372 151 363 158 367 c 0
 181 380 215 390 257 390 c 0
 370 390 436 294 436 185 c 8
 436 72 336 -11 222 -11 c 0
 164 -11 124 20 123 20 c 0
 120 20 108 9 94 -6 c 0
 88 -12 77 -12 77 1 c 0xf2
 77 154 84 206 84 364 c 0xe6
 84 463 83 572 83 674 c 0
 83 681 80 689 75 689 c 0
 71 689 39 685 25 684 c 0
 13 683 11 691 11 704 c 0
 11 708 15 713 19 713 c 0
 50 715 147 728 158 728 c 0
 164 728 164 719 164 713 c 0xea
 164 707 154 508 152 377 c 24xe6
164 350 m 24xea
 157 348 150 345 150 338 c 0
 148 237 142 103 142 70 c 0xf2
 142 24 202 13 229 13 c 0
 321 13 363 107 363 191 c 0
 363 280 294 359 222 359 c 0
 199 359 186 356 164 350 c 24xea
EndSplineSet
EndChar

StartChar: c
Encoding: 99 99 2
Width: 398
VWidth: 0
Flags: W
HStem: -10 44<163.687 308.666> 372 27<172.185 267.3>
VStem: 22 65<112.596 279.638> 304 57<275.553 339.516>
LayerCount: 3
Fore
SplineSet
87 202 m 0
 87 118 138 34 241 34 c 0
 310 34 354 64 362 64 c 0
 366 64 369 62 369 56 c 0
 369 50 310 -10 211 -10 c 0
 94 -10 22 64 22 177 c 0
 22 325 131 399 228 399 c 0
 293 399 361 354 361 303 c 0
 361 295 359 289 351 283 c 0
 342 276 330 270 321 270 c 0
 313 270 307 272 304 281 c 0
 288 326 285 372 222 372 c 0
 137 372 87 281 87 202 c 0
EndSplineSet
EndChar

StartChar: d
Encoding: 100 100 3
Width: 470
VWidth: 0
Flags: W
HStem: -16 40<174.093 282.12> -15 26<399.095 456.694> 360 28<183.442 294.153> 682 36<245.02 309.83>
VStem: 27 74<98.8678 270.381> 327 69<11.0044 15.7491 37.3855 339.599 366.007 615.663>
LayerCount: 3
Fore
SplineSet
27 181 m 0xbc
 27 283 109 388 224 388 c 0
 284 388 322 366 324 366 c 0
 327 366 327 376 327 383 c 24
 325 499 321 565 319 681 c 0
 319 687 315 691 310 691 c 0
 307 691 264 682 257 682 c 0
 251 682 247 686 245 700 c 0
 244 707 246 717 252 718 c 0
 306 725 380 734 385 734 c 0
 398 734 401 727 401 707 c 0
 401 527 396 320 396 156 c 0
 396 108 396 62 397 22 c 0
 397 17 399 11 403 11 c 0
 408 11 431 15 443 17 c 0
 456 19 457 18 457 4 c 0
 457 -9 454 -14 449 -15 c 0x7c
 406 -21 337 -29 332 -29 c 0
 325 -29 323 -24 323 -16 c 2
 323 12 l 2
 323 24 308 18 298 12 c 0
 269 -4 240 -16 200 -16 c 0
 111 -16 27 49 27 181 c 0xbc
324 59 m 0
 324 147 330 211 330 307 c 0
 330 326 291 360 239 360 c 0
 153 360 101 277 101 188 c 0
 101 95 155 24 249 24 c 0xbc
 272 24 295 32 311 40 c 0
 321 45 324 49 324 59 c 0
EndSplineSet
EndChar

StartChar: e
Encoding: 101 101 4
Width: 409
VWidth: 0
Flags: W
HStem: -15 44<171.692 305.055> 230 17<103.003 311.998> 374 22<177.635 259.908>
VStem: 28 75<97.7234 281.12> 312 69<233 323.805>
LayerCount: 3
Fore
SplineSet
220 374 m 0
 154 374 107 305 103 255 c 0
 103 249 107 247 115 247 c 0
 120 247 222 249 272 251 c 0
 309 252 312 253 312 255 c 0
 312 353 252 374 220 374 c 0
219 -15 m 0
 96 -15 28 65 28 182 c 0
 28 302 111 396 232 396 c 0
 331 396 381 321 381 237 c 0
 381 229 339 225 327 225 c 0
 316 225 111 230 103 230 c 0
 98 230 98 208 98 194 c 0
 98 87 172 29 247 29 c 0
 327 29 373 94 376 94 c 0
 379 94 392 82 392 79 c 0
 392 73 320 -15 219 -15 c 0
EndSplineSet
EndChar

StartChar: f
Encoding: 102 102 5
Width: 316
VWidth: 0
Flags: W
HStem: -2 27<32.0354 89.2127 164.039 247.994> 337 30<38.0022 84.8718 157.001 288.518> 698 32<173.245 259.636>
VStem: 85 69<370.162 657.269> 88 73<26.2458 336.849> 248 67<621.875 693.635>
LayerCount: 3
Fore
SplineSet
161 71 m 2xec
 161 36 166 25 178 25 c 2
 234 23 l 2
 246 23 248 20 248 11 c 0
 248 2 247 -2 234 -2 c 0
 215 -2 185 0 122 0 c 0
 80 0 53 -2 46 -2 c 0
 33 -2 32 3 32 14 c 0
 32 21 37 24 46 25 c 2
 80 27 l 2
 88 28 90 31 90 57 c 0
 90 77 88 144 88 172 c 2
 88 323 l 2xec
 88 336 87 337 74 337 c 2
 57 337 l 2
 41 337 38 338 38 352 c 0
 38 367 41 367 57 367 c 2
 76 367 l 2
 85 367 85 376 85 387 c 0
 85 436 80 470 80 523 c 0
 80 590 93 674 153 706 c 0
 175 718 205 730 237 730 c 0
 281 730 315 700 315 659 c 0
 315 636 276 602 262 602 c 0
 253 602 248 608 248 616 c 0
 248 653 248 698 211 698 c 0
 194 698 179 693 170 678 c 0
 155 654 154 552 154 523 c 2
 154 387 l 2xf4
 154 372 155 370 175 370 c 2
 281 370 l 2
 290 370 293 369 293 365 c 0
 293 363 292 360 290 355 c 0
 284 341 284 340 264 340 c 2
 175 340 l 2
 158 340 157 339 157 328 c 2
 161 71 l 2xec
EndSplineSet
EndChar

StartChar: g
Encoding: 103 103 6
Width: 451
VWidth: 0
Flags: W
HStem: -226 23<142.061 288.105> -12 46<84.248 168.998> 323 50<370.713 426.258> 377 27<169.202 266.01>
VStem: 35 43<-166.727 -72.7243> 54 67<181.864 326.613> 61 23<34.2717 58.053> 316 65<179.325 324.853> 369 54<-145.428 -63.7731>
LayerCount: 3
Fore
SplineSet
423 -75 m 0xf280
 423 -177 315 -226 211 -226 c 0
 128 -226 35 -198 35 -118 c 0xf880
 35 -64 111 -34 153 -22 c 0
 159 -20 169 -17 169 -14 c 0
 169 -12 166 -11 156 -11 c 0
 146 -11 125 -12 115 -12 c 0
 98 -12 78 -10 74 4 c 0
 67 26 61 48 61 57 c 0xf2
 61 66 68 75 78 77 c 0xf8
 103 83 139 88 170 94 c 0
 180 96 186 97 186 99 c 0
 186 101 180 104 170 107 c 0
 116 124 54 167 54 255 c 0
 54 343 138 404 227 404 c 0
 276 404 318 376 331 361 c 0
 335 356 341 356 348 358 c 0
 359 362 404 373 418 373 c 0
 423 373 425 369 426 356 c 0
 426 352 427 345 427 340 c 0
 427 333 426 327 422 327 c 0
 414 326 385 325 370 323 c 0
 362 322 367 315 370 308 c 0
 376 295 381 280 381 266 c 0xf5
 381 181 335 131 264 104 c 0
 218 86 154 76 87 57 c 0
 84 56 84 53 84 49 c 0
 84 43 86 35 91 34 c 0
 218 26 423 48 423 -75 c 0xf280
212 -203 m 0
 287 -203 369 -174 369 -102 c 0
 369 -45 273 -32 207 -32 c 0
 158 -32 78 -55 78 -121 c 0
 78 -179 152 -203 212 -203 c 0
216 377 m 0
 158 377 121 328 121 264 c 0
 121 179 171 142 216 113 c 0
 221 110 225 108 229 108 c 0
 234 108 237 110 243 115 c 0
 280 144 316 184 316 265 c 0xf5
 316 324 281 377 216 377 c 0
EndSplineSet
EndChar

StartChar: h
Encoding: 104 104 7
Width: 509
VWidth: 0
Flags: W
HStem: -2 27<27.0015 87.9869 160.264 221.999 294.002 357.094 427 477.997> 344 41<213.011 318.27> 627 30<10.0033 74.8224>
VStem: 81 85<407.343 633.997> 89 69<25 325.829 349.916 496.56> 359 68<25 300.413>
LayerCount: 3
Fore
SplineSet
88 43 m 4xec
 89 137 89 191 89 263 c 0xec
 89 381 85 540 81 617 c 0
 80 630 81 634 75 634 c 0
 72 634 18 627 14 627 c 0
 11 627 10 628 10 631 c 2
 10 647 l 2
 10 654 10 656 14 657 c 0
 60 663 155 675 161 675 c 0
 167 675 166 665 166 655 c 0xf4
 162 572 158 442 158 354 c 0
 158 337 159 339 169 345 c 0
 200 362 260 385 302 385 c 0
 414 385 427 288 427 180 c 2
 427 37 l 2
 427 26 428 25 438 25 c 2
 464 25 l 2
 476 25 478 21 478 12 c 0
 478 3 477 -2 464 -2 c 0
 445 -2 422 0 393 0 c 0
 368 0 337 -2 307 -2 c 0
 294 -2 294 1 294 12 c 0
 294 21 297 25 307 25 c 2
 346 25 l 2
 356 25 356 25 357 36 c 0
 358 56 359 106 359 212 c 0
 359 284 331 344 263 344 c 0
 223 344 194 333 174 323 c 0
 160 316 158 312 158 308 c 2
 159 158 l 2
 159 117 159 69 160 43 c 4
 161 25 161 25 171 25 c 6
 209 25 l 6
 221 25 222 21 222 12 c 4
 222 3 222 -2 209 -2 c 4
 190 -2 155 0 126 0 c 4
 101 0 70 -2 40 -2 c 4
 27 -2 27 1 27 12 c 4
 27 21 29 25 39 25 c 6
 78 25 l 6
 88 25 88 28 88 43 c 4xec
EndSplineSet
EndChar

StartChar: i
Encoding: 105 105 8
Width: 252
VWidth: 0
Flags: WO
HStem: -2 27<27.0008 93.0461 165 221.999> 355 23<25.4111 89.5645> 512 96<87.6562 163.209>
VStem: 75 102<526.348 594> 94 68<25 354.999>
LayerCount: 3
Fore
SplineSet
93 37 m 0xe8
 94 66 94 95 94 125 c 0
 94 195 93 266 90 339 c 0
 89 354 87 355 77 355 c 0
 74 355 31 353 27 353 c 0
 24 353 23 354 23 357 c 0
 23 360 23 362 27 370 c 0
 31 378 30 377 42 378 c 0
 61 379 150 383 155 383 c 0
 161 383 162 382 162 377 c 2
 162 207 l 2
 162 150 162 94 165 37 c 0
 165 28 165 25 175 25 c 2
 211 25 l 2
 221 25 222 21 222 12 c 0
 222 3 222 -2 211 -2 c 0
 192 -2 152 0 127 0 c 0
 102 0 57 -2 38 -2 c 0
 27 -2 27 1 27 12 c 0
 27 21 28 25 41 25 c 2
 82 25 l 2
 93 25 93 27 93 37 c 0xe8
177 568 m 0xf0
 177 534 144 512 116 512 c 0
 95 512 75 525 75 553 c 0
 75 589 111 608 135 608 c 0
 156 608 177 597 177 568 c 0xf0
EndSplineSet
EndChar

StartChar: j
Encoding: 106 106 9
Width: 268
VWidth: 0
Flags: W
LayerCount: 3
Fore
SplineSet
169 599 m 0xf0
 169 559 133 538 103 538 c 0
 80 538 57 553 57 581 c 0
 57 621 96 642 123 642 c 0
 146 642 169 627 169 599 c 0xf0
-11 -247 m 0
 -11 -236 12 -193 31 -193 c 0
 46 -193 80 -198 90 -198 c 0
 118 -198 121 -183 121 -167 c 0xe4
 121 -110 109 -58 109 340 c 0xe8
 109 355 106 353 96 353 c 0
 93 353 34 350 30 350 c 0
 27 350 27 351 27 354 c 0
 27 357 30 365 32 370 c 0
 35 378 33 377 47 378 c 0
 64 379 168 384 173 384 c 0
 180 384 180 376 180 361 c 0
 181 272 184 87 184 27 c 0
 184 -23 181 -137 133 -197 c 0
 115 -220 107 -228 64 -245 c 0
 36 -256 19 -264 8 -264 c 0
 0 -264 -11 -256 -11 -247 c 0
EndSplineSet
EndChar

StartChar: k
Encoding: 107 107 10
Width: 446
VWidth: 0
Flags: W
HStem: -2 24<35.0022 96.4324 159.415 205.999 282.002 309 393.832 435.997> 193 20<161.892 199.372> 364 24<260.001 293.841 340.54 402.974> 687 35<22.0331 93.3943>
VStem: 94 85<467.185 692> 97 62<22 192.997 213 467.185>
DStem2: 254 213 221 161 0.615202 -0.78837<-17.2132 182.492>
LayerCount: 3
Fore
SplineSet
420 21 m 0xf8
 432 21 436 19 436 10 c 0
 436 1 435 -2 422 -2 c 0
 409 -2 382 0 365 0 c 0
 340 0 312 -2 295 -2 c 0
 282 -2 282 -1 282 10 c 0
 282 19 285 20 295 20 c 2
 309 20 l 2
 326 20 316 32 310 40 c 2
 221 161 l 2
 213 171 197 193 170 193 c 0
 159 193 159 189 159 177 c 2
 159 49 l 2
 159 26 160 22 170 22 c 2
 192 22 l 2
 204 22 206 19 206 10 c 0
 206 1 205 -2 192 -2 c 0
 179 -2 151 0 130 0 c 0
 105 0 65 -2 48 -2 c 0
 35 -2 35 -1 35 10 c 0
 35 19 38 22 48 22 c 2
 85 22 l 2
 96 22 97 29 97 49 c 0xf4
 97 407 95 478 94 675 c 0
 94 692 89 692 79 692 c 0
 73 692 46 687 36 687 c 0
 24 687 22 693 22 707 c 0
 22 715 27 722 38 722 c 0
 78 723 165 731 171 731 c 0
 178 731 179 729 179 717 c 2
 179 717 161 267 161 242 c 2
 161 233 l 2
 161 216 165 213 177 213 c 2
 199 213 l 2
 209 213 214 223 221 232 c 0
 249 269 273 305 296 346 c 0
 303 359 299 365 291 365 c 2
 274 365 l 2
 262 365 260 365 260 376 c 0
 260 388 261 388 274 388 c 2
 318 388 l 2
 349 388 382 389 391 389 c 0
 399 389 403 387 403 378 c 0
 403 364 401 364 389 364 c 2
 363 364 l 2
 348 364 334 346 325 334 c 2
 256 245 l 2
 249 236 245 232 245 228 c 0
 245 224 248 220 254 213 c 2
 389 40 l 2
 398 28 404 21 420 21 c 0xf8
EndSplineSet
EndChar

StartChar: z
Encoding: 122 122 11
Width: 187
VWidth: 0
Flags: W
HStem: 120 96<54.332 133.668>
VStem: 46 96<128.332 207.668>
LayerCount: 3
Fore
SplineSet
46 168 m 0
 46 194 68 216 94 216 c 0
 120 216 142 194 142 168 c 0
 142 142 120 120 94 120 c 0
 68 120 46 142 46 168 c 0
EndSplineSet
EndChar

StartChar: l
Encoding: 108 108 12
Width: 263
VWidth: 0
Flags: W
LayerCount: 3
Fore
SplineSet
26 717 m 0xd0
 65 718 138 727 144 727 c 0
 151 727 152 724 152 712 c 2xb0
 149 49 l 2
 149 26 150 21 160 21 c 2
 193 21 l 2
 205 21 207 19 207 10 c 0
 207 1 206 -2 193 -2 c 0
 175 -2 145 0 116 0 c 0
 91 0 49 -2 32 -2 c 0
 19 -2 19 -1 19 10 c 0
 19 19 22 21 32 21 c 2
 72 21 l 2
 83 21 84 29 84 49 c 0xa8
 84 407 80 474 76 670 c 0
 76 687 75 690 65 690 c 0
 60 690 32 686 28 686 c 0
 14 686 10 687 10 703 c 0
 10 711 15 717 26 717 c 0xd0
EndSplineSet
EndChar

StartChar: m
Encoding: 109 109 13
Width: 729
VWidth: 0
Flags: W
HStem: -2 26<30.0037 85.239 158.002 210.992 283.009 334.396 401.341 448.992 518.004 571.889 642.001 695.992> 348 36<25.4177 89 220.488 313.868 451.862 548.322> 350 27<25.0145 87.2485>
VStem: 88 69<24.1608 319.996 342.519 352.997> 338 60<24 326.693> 577 69<24 323.355>
LayerCount: 3
Fore
SplineSet
89 331 m 2xdc
 89 349 86 353 77 353 c 0
 72 353 38 350 33 350 c 0
 27 350 25 356 25 363 c 0
 25 369 30 377 35 377 c 0
 49 378 142 385 148 385 c 0
 155 385 156 381 155 369 c 2
 155 369 155 353 154 342 c 0
 153 322 162 331 171 338 c 0
 201 359 258 390 307 390 c 0
 343 390 369 376 386 350 c 0xbc
 397 334 392 334 408 344 c 0
 439 364 490 384 528 384 c 0
 618 384 646 326 646 240 c 0
 646 156 642 83 642 35 c 0
 642 28 643 24 647 24 c 2
 682 24 l 2
 694 24 696 21 696 12 c 0
 696 3 695 -2 682 -2 c 0
 663 -2 642 0 613 0 c 0
 588 0 561 -2 531 -2 c 0
 518 -2 518 1 518 12 c 0
 518 21 523 24 533 24 c 2
 568 24 l 2
 577 24 577 169 577 216 c 0
 577 283 571 348 498 348 c 0
 447 348 398 319 398 316 c 0
 400 294 403 265 403 240 c 2
 401 66 l 2
 401 42 401 24 404 24 c 2
 435 24 l 2
 447 24 449 21 449 12 c 0
 449 3 448 -2 435 -2 c 0
 416 -2 400 0 371 0 c 0
 346 0 329 -2 299 -2 c 0
 286 -2 283 1 283 12 c 0
 283 21 286 24 296 24 c 2
 332 24 l 2
 338 24 338 202 338 216 c 0
 338 284 332 349 268 349 c 0
 225 349 195 333 174 317 c 0
 162 308 161 305 160 297 c 0
 157 254 157 213 157 174 c 2
 157 68 l 2
 157 29 157 24 176 24 c 2
 197 24 l 2
 209 24 211 21 211 12 c 0
 211 3 210 -2 197 -2 c 0
 178 -2 151 0 126 0 c 0
 101 0 59 -2 43 -2 c 0
 35 -2 30 0 30 11 c 0
 30 20 32 22 42 22 c 2
 75 22 l 2
 84 22 86 38 88 57 c 0
 90 77 90 118 90 163 c 2
 89 331 l 2xdc
EndSplineSet
EndChar

StartChar: n
Encoding: 110 110 14
Width: 501
VWidth: 0
Flags: W
HStem: -2 27<22.0015 82.7266 155.036 216.999 294.003 355.187 425.001 479.999> 342 42<217.101 323.884> 346 28<18.7455 86.1817>
VStem: 86 68<25 314.96 328 350.001> 359 71<25 306.07>
LayerCount: 3
Fore
SplineSet
86 336 m 4xd8
 85 351 84 350 74 350 c 4
 71 350 23 346 19 346 c 4
 16 346 16 347 16 350 c 4
 16 353 19 361 21 366 c 4
 24 374 22 373 36 374 c 4xb8
 50 375 113 379 141 381 c 4
 156 382 154 380 154 370 c 6
 154 328 l 6
 154 319 164 330 169 333 c 0
 199 352 236 384 297 384 c 0
 413 384 430 305 430 207 c 0
 430 152 425 52 425 37 c 0
 425 26 426 25 436 25 c 2
 466 25 l 2
 478 25 480 24 480 12 c 0
 480 3 480 -2 468 -2 c 0
 449 -2 422 0 393 0 c 0
 368 0 338 -2 308 -2 c 0
 294 -2 294 0 294 11 c 0
 294 23 297 25 307 25 c 2
 344 25 l 2
 354 25 354 25 355 36 c 0
 357 60 359 106 359 212 c 0
 359 284 340 342 263 342 c 0
 223 342 194 324 174 314 c 0
 158 306 156 300 156 291 c 0
 156 209 155 126 155 44 c 0
 155 28 155 25 168 25 c 2
 204 25 l 2
 216 25 217 21 217 12 c 0
 217 3 217 -2 204 -2 c 0
 185 -2 152 0 123 0 c 0
 98 0 65 -2 35 -2 c 0
 22 -2 22 1 22 12 c 0
 22 21 24 25 34 25 c 2
 73 25 l 2
 83 25 82 28 83 43 c 0
 86 102 88 173 88 237 c 0
 88 271 88 305 86 336 c 4xd8
EndSplineSet
EndChar

StartChar: o
Encoding: 111 111 15
Width: 451
VWidth: 0
Flags: W
HStem: -12 26<169.668 268.596> 373 26<169.398 269.376>
VStem: 29 71<95.766 283.533> 342 73<95.5947 296.02>
LayerCount: 3
Fore
SplineSet
222 373 m 0
 128 373 100 282 100 172 c 0
 100 97 140 14 218 14 c 0
 318 14 342 117 342 207 c 0
 342 285 306 373 222 373 c 0
234 399 m 0
 343 399 415 310 415 200 c 0
 415 77 342 -12 218 -12 c 0
 111 -12 29 77 29 186 c 0
 29 304 111 399 234 399 c 0
EndSplineSet
EndChar

StartChar: p
Encoding: 112 112 16
Width: 499
VWidth: 0
Flags: W
HStem: -279 25<28.006 96.6536 169.637 256.997> -9 19<203.549 297.938> 348 35<219.588 322.972> 349 25<14.3895 90.858>
VStem: 91 74<57.9441 328.445 332.002 349> 98 67<-254 2.78003 27.3368 328.445 332.002 333.085> 392 72<104.791 280.881>
LayerCount: 3
Fore
SplineSet
262 348 m 0xe6
 234 348 213 342 198 335 c 0
 166 319 165 306 165 302 c 2xea
 165 52 l 2
 165 28 221 10 252 10 c 0
 346 10 392 107 392 187 c 0
 392 285 336 348 262 348 c 0xe6
174 -254 m 2
 244 -254 l 2
 256 -254 257 -258 257 -267 c 0
 257 -276 257 -281 244 -281 c 0
 225 -281 167 -279 138 -279 c 0
 113 -279 71 -281 41 -281 c 0
 28 -281 28 -278 28 -267 c 0
 28 -258 30 -254 40 -254 c 2
 95 -254 l 2
 98 -254 98 -173 98 -94 c 2
 98 48 l 2xe6
 98 263 94 294 91 335 c 0
 90 349 89 349 75 349 c 0
 69 349 30 347 25 347 c 0
 15 347 12 346 12 352 c 0
 12 356 18 374 21 374 c 0xda
 88 376 149 380 153 380 c 0
 161 380 164 380 164 366 c 2
 164 342 l 2
 164 335 164 332 166 332 c 0
 169 332 176 339 185 346 c 0
 208 363 251 383 293 383 c 0
 408 383 464 300 464 194 c 0
 464 93 386 -9 255 -9 c 0
 234 -9 208 -4 189 2 c 0
 176 6 165 13 165 2 c 2xe6
 168 -187 l 2
 169 -225 168 -254 174 -254 c 2
EndSplineSet
EndChar

StartChar: q
Encoding: 113 113 17
Width: 187
VWidth: 0
Flags: W
HStem: 120 96<54.332 133.668>
VStem: 46 96<128.332 207.668>
LayerCount: 3
Fore
SplineSet
46 168 m 4
 46 194 68 216 94 216 c 4
 120 216 142 194 142 168 c 4
 142 142 120 120 94 120 c 4
 68 120 46 142 46 168 c 4
EndSplineSet
EndChar

StartChar: r
Encoding: 114 114 18
Width: 330
VWidth: 0
Flags: W
LayerCount: 3
Fore
SplineSet
94 347 m 0
 91 347 34 345 30 345 c 0
 27 345 27 346 27 349 c 0
 27 352 28 356 30 361 c 0
 33 369 31 368 45 369 c 0
 59 370 143 372 150 372 c 0
 166 372 162 372 162 362 c 0
 162 343 161 321 161 302 c 0
 161 289 161 284 162 284 c 0
 164 284 167 300 171 309 c 0
 194 363 234 394 264 394 c 0
 294 394 321 363 321 351 c 0
 321 340 300 310 284 310 c 0
 261 310 244 341 224 341 c 0
 174 341 167 222 167 137 c 0
 167 84 167 25 179 25 c 2
 242 25 l 2
 254 25 255 21 255 12 c 0
 255 3 255 -2 242 -2 c 0
 223 -2 165 0 136 0 c 0
 111 0 80 -2 50 -2 c 0
 37 -2 37 1 37 12 c 0
 37 21 39 25 49 25 c 2
 92 25 l 2
 100 25 101 90 101 162 c 0
 101 250 97 347 94 347 c 0
EndSplineSet
EndChar

StartChar: s
Encoding: 115 115 19
Width: 331
VWidth: 0
Flags: W
LayerCount: 3
Fore
SplineSet
177 392 m 0
 253 392 281 348 281 325 c 0
 281 314 252 306 241 306 c 0
 218 306 229 371 164 371 c 0
 131 371 91 353 91 301 c 0
 91 258 131 241 173 221 c 0
 231 193 297 164 297 105 c 0
 297 32 230 -13 156 -13 c 0
 95 -13 30 18 30 49 c 0
 30 65 52 87 60 87 c 0
 66 87 67 74 79 60 c 0
 99 36 124 10 172 10 c 0
 206 10 238 30 238 75 c 0
 238 122 196 144 149 164 c 0
 94 188 33 208 33 279 c 0
 33 346 106 392 177 392 c 0
EndSplineSet
EndChar

StartChar: t
Encoding: 116 116 20
Width: 275
VWidth: 0
Flags: W
HStem: -9 46<98.5 205.078> 338 34<120.225 235.859>
VStem: 57 63<44.1261 336.954>
LayerCount: 3
Fore
SplineSet
253 38 m 0
 253 33 168 -9 127 -9 c 0
 70 -9 57 30 57 60 c 2
 57 258 l 2
 57 304 53 337 45 337 c 2
 22 337 l 2
 18 337 16 340 16 344 c 0
 16 347 17 350 19 352 c 0
 35 371 76 429 108 479 c 0
 110 482 113 483 116 483 c 0
 121 483 126 480 126 474 c 0
 126 471 119 398 119 382 c 0
 119 373 121 372 130 372 c 2
 227 372 l 2
 239 372 240 372 236 354 c 0
 233 341 230 338 223 338 c 2
 123 338 l 2
 120 338 120 320 120 292 c 2
 120 245 l 2
 120 174 123 88 124 79 c 0
 126 63 132 37 169 37 c 0
 208 37 241 54 249 54 c 0
 252 54 253 45 253 38 c 0
EndSplineSet
EndChar

StartChar: u
Encoding: 117 117 21
Width: 187
VWidth: 0
Flags: W
HStem: 120 96<54.332 133.668>
VStem: 46 96<128.332 207.668>
LayerCount: 3
Fore
SplineSet
46 168 m 4
 46 194 68 216 94 216 c 4
 120 216 142 194 142 168 c 4
 142 142 120 120 94 120 c 4
 68 120 46 142 46 168 c 4
EndSplineSet
EndChar

StartChar: v
Encoding: 118 118 22
Width: 187
VWidth: 0
Flags: W
HStem: 120 96<54.332 133.668>
VStem: 46 96<128.332 207.668>
LayerCount: 3
Fore
SplineSet
46 168 m 4
 46 194 68 216 94 216 c 4
 120 216 142 194 142 168 c 4
 142 142 120 120 94 120 c 4
 68 120 46 142 46 168 c 4
EndSplineSet
EndChar

StartChar: w
Encoding: 119 119 23
Width: 187
VWidth: 0
Flags: W
HStem: 120 96<54.332 133.668>
VStem: 46 96<128.332 207.668>
LayerCount: 3
Fore
SplineSet
46 168 m 4
 46 194 68 216 94 216 c 4
 120 216 142 194 142 168 c 4
 142 142 120 120 94 120 c 4
 68 120 46 142 46 168 c 4
EndSplineSet
EndChar

StartChar: x
Encoding: 120 120 24
Width: 187
VWidth: 0
Flags: W
HStem: 120 96<54.332 133.668>
VStem: 46 96<128.332 207.668>
LayerCount: 3
Fore
SplineSet
46 168 m 4
 46 194 68 216 94 216 c 4
 120 216 142 194 142 168 c 4
 142 142 120 120 94 120 c 4
 68 120 46 142 46 168 c 4
EndSplineSet
EndChar

StartChar: y
Encoding: 121 121 25
Width: 187
VWidth: 0
Flags: W
HStem: 120 96<54.332 133.668>
VStem: 46 96<128.332 207.668>
LayerCount: 3
Fore
SplineSet
46 168 m 4
 46 194 68 216 94 216 c 4
 120 216 142 194 142 168 c 4
 142 142 120 120 94 120 c 4
 68 120 46 142 46 168 c 4
EndSplineSet
EndChar

StartChar: zero
Encoding: 48 48 52
Width: 187
VWidth: 0
Flags: W
HStem: 120 96<54.332 133.668>
VStem: 46 96<128.332 207.668>
LayerCount: 3
Fore
SplineSet
46 168 m 0
 46 194 68 216 94 216 c 0
 120 216 142 194 142 168 c 0
 142 142 120 120 94 120 c 0
 68 120 46 142 46 168 c 0
EndSplineSet
EndChar

StartChar: one
Encoding: 49 49 53
Width: 187
VWidth: 0
Flags: W
HStem: 120 96<54.332 133.668>
VStem: 46 96<128.332 207.668>
LayerCount: 3
Fore
SplineSet
46 168 m 0
 46 194 68 216 94 216 c 0
 120 216 142 194 142 168 c 0
 142 142 120 120 94 120 c 0
 68 120 46 142 46 168 c 0
EndSplineSet
EndChar

StartChar: two
Encoding: 50 50 54
Width: 187
VWidth: 0
Flags: W
HStem: 120 96<54.332 133.668>
VStem: 46 96<128.332 207.668>
LayerCount: 3
Fore
SplineSet
46 168 m 0
 46 194 68 216 94 216 c 0
 120 216 142 194 142 168 c 0
 142 142 120 120 94 120 c 0
 68 120 46 142 46 168 c 0
EndSplineSet
EndChar

StartChar: three
Encoding: 51 51 55
Width: 187
VWidth: 0
Flags: W
HStem: 120 96<54.332 133.668>
VStem: 46 96<128.332 207.668>
LayerCount: 3
Fore
SplineSet
46 168 m 0
 46 194 68 216 94 216 c 0
 120 216 142 194 142 168 c 0
 142 142 120 120 94 120 c 0
 68 120 46 142 46 168 c 0
EndSplineSet
EndChar

StartChar: four
Encoding: 52 52 56
Width: 187
VWidth: 0
Flags: W
HStem: 120 96<54.332 133.668>
VStem: 46 96<128.332 207.668>
LayerCount: 3
Fore
SplineSet
46 168 m 0
 46 194 68 216 94 216 c 0
 120 216 142 194 142 168 c 0
 142 142 120 120 94 120 c 0
 68 120 46 142 46 168 c 0
EndSplineSet
EndChar

StartChar: five
Encoding: 53 53 57
Width: 187
VWidth: 0
Flags: W
HStem: 120 96<54.332 133.668>
VStem: 46 96<128.332 207.668>
LayerCount: 3
Fore
SplineSet
46 168 m 0
 46 194 68 216 94 216 c 0
 120 216 142 194 142 168 c 0
 142 142 120 120 94 120 c 0
 68 120 46 142 46 168 c 0
EndSplineSet
EndChar

StartChar: six
Encoding: 54 54 58
Width: 187
VWidth: 0
Flags: W
HStem: 120 96<54.332 133.668>
VStem: 46 96<128.332 207.668>
LayerCount: 3
Fore
SplineSet
46 168 m 0
 46 194 68 216 94 216 c 0
 120 216 142 194 142 168 c 0
 142 142 120 120 94 120 c 0
 68 120 46 142 46 168 c 0
EndSplineSet
EndChar

StartChar: seven
Encoding: 55 55 59
Width: 187
VWidth: 0
Flags: W
HStem: 120 96<54.332 133.668>
VStem: 46 96<128.332 207.668>
LayerCount: 3
Fore
SplineSet
46 168 m 0
 46 194 68 216 94 216 c 0
 120 216 142 194 142 168 c 0
 142 142 120 120 94 120 c 0
 68 120 46 142 46 168 c 0
EndSplineSet
EndChar

StartChar: eight
Encoding: 56 56 60
Width: 187
VWidth: 0
Flags: W
HStem: 120 96<54.332 133.668>
VStem: 46 96<128.332 207.668>
LayerCount: 3
Fore
SplineSet
46 168 m 0
 46 194 68 216 94 216 c 0
 120 216 142 194 142 168 c 0
 142 142 120 120 94 120 c 0
 68 120 46 142 46 168 c 0
EndSplineSet
EndChar

StartChar: nine
Encoding: 57 57 61
Width: 187
VWidth: 0
Flags: W
HStem: 120 96<54.332 133.668>
VStem: 46 96<128.332 207.668>
LayerCount: 3
Fore
SplineSet
46 168 m 0
 46 194 68 216 94 216 c 0
 120 216 142 194 142 168 c 0
 142 142 120 120 94 120 c 0
 68 120 46 142 46 168 c 0
EndSplineSet
EndChar

